<mxfile host="Electron" modified="2023-08-16T10:23:21.017Z" agent="Mozilla/5.0 (Windows NT 10.0; Win64; x64) AppleWebKit/537.36 (KHTML, like Gecko) draw.io/21.6.5 Chrome/114.0.5735.243 Electron/25.3.1 Safari/537.36" etag="kJCnIcgZmrMsONQGhLBH" version="21.6.5" type="device">
  <diagram id="C5RBs43oDa-KdzZeNtuy" name="Page-1">
    <mxGraphModel dx="1418" dy="828" grid="1" gridSize="10" guides="1" tooltips="1" connect="1" arrows="1" fold="1" page="1" pageScale="1" pageWidth="827" pageHeight="1169" math="0" shadow="0">
      <root>
        <mxCell id="WIyWlLk6GJQsqaUBKTNV-0" />
        <mxCell id="WIyWlLk6GJQsqaUBKTNV-1" parent="WIyWlLk6GJQsqaUBKTNV-0" />
        <mxCell id="WIyWlLk6GJQsqaUBKTNV-2" value="" style="rounded=0;html=1;jettySize=auto;orthogonalLoop=1;fontSize=11;endArrow=block;endFill=0;endSize=8;strokeWidth=1;shadow=0;labelBackgroundColor=none;edgeStyle=orthogonalEdgeStyle;" parent="WIyWlLk6GJQsqaUBKTNV-1" source="WIyWlLk6GJQsqaUBKTNV-3" edge="1">
          <mxGeometry relative="1" as="geometry">
            <mxPoint x="310" y="130" as="targetPoint" />
          </mxGeometry>
        </mxCell>
        <mxCell id="WIyWlLk6GJQsqaUBKTNV-3" value="先从父进程开始" style="rounded=1;whiteSpace=wrap;html=1;fontSize=12;glass=0;strokeWidth=1;shadow=0;" parent="WIyWlLk6GJQsqaUBKTNV-1" vertex="1">
          <mxGeometry x="250" y="40" width="120" height="40" as="geometry" />
        </mxCell>
        <mxCell id="7-iCm0r1XeGWphXHoZhV-27" style="edgeStyle=orthogonalEdgeStyle;rounded=0;orthogonalLoop=1;jettySize=auto;html=1;entryX=0.5;entryY=0;entryDx=0;entryDy=0;" edge="1" parent="WIyWlLk6GJQsqaUBKTNV-1" source="7-iCm0r1XeGWphXHoZhV-0" target="7-iCm0r1XeGWphXHoZhV-1">
          <mxGeometry relative="1" as="geometry" />
        </mxCell>
        <mxCell id="7-iCm0r1XeGWphXHoZhV-0" value="select接收数据" style="rounded=0;whiteSpace=wrap;html=1;flipH=1;flipV=0;" vertex="1" parent="WIyWlLk6GJQsqaUBKTNV-1">
          <mxGeometry x="250" y="130" width="120" height="60" as="geometry" />
        </mxCell>
        <mxCell id="7-iCm0r1XeGWphXHoZhV-15" style="edgeStyle=orthogonalEdgeStyle;rounded=0;orthogonalLoop=1;jettySize=auto;html=1;entryX=0.5;entryY=0;entryDx=0;entryDy=0;" edge="1" parent="WIyWlLk6GJQsqaUBKTNV-1" source="7-iCm0r1XeGWphXHoZhV-1" target="7-iCm0r1XeGWphXHoZhV-5">
          <mxGeometry relative="1" as="geometry" />
        </mxCell>
        <mxCell id="7-iCm0r1XeGWphXHoZhV-1" value="读DNS数据" style="rounded=0;whiteSpace=wrap;html=1;flipH=1;flipV=0;" vertex="1" parent="WIyWlLk6GJQsqaUBKTNV-1">
          <mxGeometry x="250" y="220" width="120" height="60" as="geometry" />
        </mxCell>
        <mxCell id="7-iCm0r1XeGWphXHoZhV-24" style="edgeStyle=orthogonalEdgeStyle;rounded=0;orthogonalLoop=1;jettySize=auto;html=1;entryX=0.5;entryY=0;entryDx=0;entryDy=0;" edge="1" parent="WIyWlLk6GJQsqaUBKTNV-1" source="7-iCm0r1XeGWphXHoZhV-5" target="7-iCm0r1XeGWphXHoZhV-23">
          <mxGeometry relative="1" as="geometry" />
        </mxCell>
        <mxCell id="7-iCm0r1XeGWphXHoZhV-5" value="完成认证过程" style="rounded=0;whiteSpace=wrap;html=1;flipH=1;flipV=0;" vertex="1" parent="WIyWlLk6GJQsqaUBKTNV-1">
          <mxGeometry x="250" y="340" width="120" height="60" as="geometry" />
        </mxCell>
        <mxCell id="7-iCm0r1XeGWphXHoZhV-11" style="edgeStyle=orthogonalEdgeStyle;rounded=0;orthogonalLoop=1;jettySize=auto;html=1;entryX=0.5;entryY=0;entryDx=0;entryDy=0;" edge="1" parent="WIyWlLk6GJQsqaUBKTNV-1" source="7-iCm0r1XeGWphXHoZhV-6" target="7-iCm0r1XeGWphXHoZhV-8">
          <mxGeometry relative="1" as="geometry" />
        </mxCell>
        <mxCell id="7-iCm0r1XeGWphXHoZhV-12" style="edgeStyle=orthogonalEdgeStyle;rounded=0;orthogonalLoop=1;jettySize=auto;html=1;entryX=0.5;entryY=0;entryDx=0;entryDy=0;" edge="1" parent="WIyWlLk6GJQsqaUBKTNV-1" source="7-iCm0r1XeGWphXHoZhV-6" target="7-iCm0r1XeGWphXHoZhV-7">
          <mxGeometry relative="1" as="geometry" />
        </mxCell>
        <mxCell id="7-iCm0r1XeGWphXHoZhV-14" style="edgeStyle=orthogonalEdgeStyle;rounded=0;orthogonalLoop=1;jettySize=auto;html=1;entryX=0.5;entryY=0;entryDx=0;entryDy=0;" edge="1" parent="WIyWlLk6GJQsqaUBKTNV-1" source="7-iCm0r1XeGWphXHoZhV-6" target="7-iCm0r1XeGWphXHoZhV-9">
          <mxGeometry relative="1" as="geometry" />
        </mxCell>
        <mxCell id="7-iCm0r1XeGWphXHoZhV-6" value="转发对应DNS数据到子进程" style="rounded=0;whiteSpace=wrap;html=1;flipH=1;flipV=0;" vertex="1" parent="WIyWlLk6GJQsqaUBKTNV-1">
          <mxGeometry x="250" y="560" width="120" height="60" as="geometry" />
        </mxCell>
        <mxCell id="7-iCm0r1XeGWphXHoZhV-7" value="" style="rounded=0;whiteSpace=wrap;html=1;" vertex="1" parent="WIyWlLk6GJQsqaUBKTNV-1">
          <mxGeometry x="225" y="670" width="40" height="60" as="geometry" />
        </mxCell>
        <mxCell id="7-iCm0r1XeGWphXHoZhV-8" value="" style="rounded=0;whiteSpace=wrap;html=1;" vertex="1" parent="WIyWlLk6GJQsqaUBKTNV-1">
          <mxGeometry x="290" y="670" width="40" height="60" as="geometry" />
        </mxCell>
        <mxCell id="7-iCm0r1XeGWphXHoZhV-9" value="" style="rounded=0;whiteSpace=wrap;html=1;" vertex="1" parent="WIyWlLk6GJQsqaUBKTNV-1">
          <mxGeometry x="355" y="670" width="40" height="60" as="geometry" />
        </mxCell>
        <mxCell id="7-iCm0r1XeGWphXHoZhV-18" value="子进程开始" style="rounded=1;whiteSpace=wrap;html=1;" vertex="1" parent="WIyWlLk6GJQsqaUBKTNV-1">
          <mxGeometry x="560" y="860" width="120" height="60" as="geometry" />
        </mxCell>
        <mxCell id="7-iCm0r1XeGWphXHoZhV-19" value="select接收数据" style="rounded=0;whiteSpace=wrap;html=1;" vertex="1" parent="WIyWlLk6GJQsqaUBKTNV-1">
          <mxGeometry x="560" y="955" width="120" height="60" as="geometry" />
        </mxCell>
        <mxCell id="7-iCm0r1XeGWphXHoZhV-20" value="读取DNS数据" style="rounded=0;whiteSpace=wrap;html=1;" vertex="1" parent="WIyWlLk6GJQsqaUBKTNV-1">
          <mxGeometry x="440" y="1059.5" width="120" height="60" as="geometry" />
        </mxCell>
        <mxCell id="7-iCm0r1XeGWphXHoZhV-21" value="" style="rounded=0;whiteSpace=wrap;html=1;" vertex="1" parent="WIyWlLk6GJQsqaUBKTNV-1">
          <mxGeometry x="680" y="1060" width="120" height="60" as="geometry" />
        </mxCell>
        <mxCell id="7-iCm0r1XeGWphXHoZhV-22" value="" style="rounded=0;whiteSpace=wrap;html=1;" vertex="1" parent="WIyWlLk6GJQsqaUBKTNV-1">
          <mxGeometry x="440" y="1160" width="120" height="60" as="geometry" />
        </mxCell>
        <mxCell id="7-iCm0r1XeGWphXHoZhV-25" style="edgeStyle=orthogonalEdgeStyle;rounded=0;orthogonalLoop=1;jettySize=auto;html=1;entryX=0.5;entryY=0;entryDx=0;entryDy=0;" edge="1" parent="WIyWlLk6GJQsqaUBKTNV-1" source="7-iCm0r1XeGWphXHoZhV-23" target="7-iCm0r1XeGWphXHoZhV-6">
          <mxGeometry relative="1" as="geometry" />
        </mxCell>
        <mxCell id="7-iCm0r1XeGWphXHoZhV-23" value="认证到需要bind_user时，开子进程，记录IP和进程ID" style="rounded=0;whiteSpace=wrap;html=1;flipH=1;flipV=0;" vertex="1" parent="WIyWlLk6GJQsqaUBKTNV-1">
          <mxGeometry x="250" y="450" width="120" height="60" as="geometry" />
        </mxCell>
        <mxCell id="7-iCm0r1XeGWphXHoZhV-26" value="下一次select时" style="text;html=1;align=center;verticalAlign=middle;resizable=0;points=[];autosize=1;strokeColor=none;fillColor=none;" vertex="1" parent="WIyWlLk6GJQsqaUBKTNV-1">
          <mxGeometry x="302.5" y="519.5" width="100" height="30" as="geometry" />
        </mxCell>
      </root>
    </mxGraphModel>
  </diagram>
</mxfile>
